<?xml version="1.0" encoding="utf-8"?>
<!-- Generator: Adobe Illustrator 24.1.2, SVG Export Plug-In . SVG Version: 6.00 Build 0)  -->
<svg version="1.1" id="Layer_1" xmlns="http://www.w3.org/2000/svg" xmlns:xlink="http://www.w3.org/1999/xlink" x="0px" y="0px"
	 viewBox="0 0 117 117" style="enable-background:new 0 0 117 117;" xml:space="preserve">
<style type="text/css">
	.st0{clip-path:url(#SVGID_2_);fill:#FFFFFF;stroke:#E41D20;stroke-width:2;stroke-miterlimit:10;}
	.st1{clip-path:url(#SVGID_2_);}
	.st2{fill:#E31B20;}
</style>
<g>
	<defs>
		<rect id="SVGID_1_" y="0" width="117" height="117"/>
	</defs>
	<clipPath id="SVGID_2_">
		<use xlink:href="#SVGID_1_"  style="overflow:visible;"/>
	</clipPath>
	<path class="st0" d="M92.4,1.4H24.3c-12.8,0-23,10.3-23,23.1v68.3c0,12.7,10.2,23.1,23,23.1h68.2c12.7,0,23-10.3,23-23.1V24.4
		C115.4,11.6,105.2,1.4,92.4,1.4z"/>
	<g class="st1">
		<path class="st2" d="M84.6,10.9c-3.1,4.4-6.7,8.6-9.3,13.2c-6.6,11.5-6.4,23.4-0.6,35.3c1.9,4,4,8,5.5,12.1
			c2.8,7.9,1.5,15.8-0.9,23.6c-1,3.2-2.1,6.4-3.3,9.6c-0.2,0.6-1,1.4-1.6,1.4c-4.2,0.1-8.3,0.1-12.8,0.1c0.4-0.7,0.6-1.1,0.8-1.5
			c7.7-10.3,8.4-21.5,4.5-33.4c-1.9-6-4.2-11.9-5.5-18c-2.1-9.3-2.7-18.7,0-28.1c1.7-5.7,4.9-10.3,9.2-14.2
			C75.2,10.9,79.9,10.9,84.6,10.9z"/>
		<path d="M34.4,105c0.5-0.4,0.9-1.1,1.4-1.2c3.3-1,3.8-1.7,3.8-5.2c-0.2-18.9-0.4-37.8-0.5-56.6c0-2.3-0.7-3.7-2.8-4.5
			c-0.5-0.2-0.9-0.8-1.8-1.7c7.2,0,13.7,0,20.2,0c0.1,0.1,0.2,0.3,0.3,0.4c-0.5,0.4-0.9,1-1.5,1.2C51,38,50,39.5,50.1,42.3
			c0.1,18.8,0.1,37.6,0.1,56.4c0,3.3,0.6,4.1,3.9,5.1c0.7,0.2,1.3,0.7,1.9,1.1c-0.1,0.2-0.2,0.4-0.3,0.6c-7,0-13.9,0-20.9,0
			C34.7,105.4,34.5,105.2,34.4,105z"/>
	</g>
</g>
</svg>
